<?xml version="1.0" encoding="iso-8859-1"?>
<!-- Uploaded to: SVG Repo, www.svgrepo.com, Generator: SVG Repo Mixer Tools -->
<svg fill="#000000" height="800px" width="800px" version="1.1" id="Layer_1" xmlns="http://www.w3.org/2000/svg" xmlns:xlink="http://www.w3.org/1999/xlink" 
	 viewBox="0 0 294.205 294.205" xml:space="preserve">
<g>
	<g>
		<g>
			<path d="M191.309,30.007h-20.232c-1.752,0-3.176,1.416-3.176,3.172c0,1.752,1.424,3.168,3.176,3.168h20.232
				c1.752,0,3.176-1.416,3.176-3.168C194.481,31.423,193.061,30.007,191.309,30.007z"/>
			<path d="M294.189,238.907c-0.048-1.712-1.452-3.08-3.168-3.08h-20.896c-1.752,0-3.176,1.416-3.176,3.172
				c0,1.752,1.424,3.168,3.176,3.168h17.672c-0.396,5.904-2.488,10.688-6.228,14.26c-9.62,9.192-27.196,8.004-27.632,7.976
				l-28.136,0.072H79.745v-14.248c0-0.036-0.02-0.064-0.02-0.1c6.384-5.88,10.416-14.284,10.416-23.628
				c0-10.128-4.716-19.164-12.056-25.064V36.347h67.792c1.752,0,3.176-1.416,3.176-3.172c0-1.752-1.424-3.168-3.176-3.168H6.409
				c0.396-5.904,2.484-10.688,6.224-14.26c9.628-9.196,27.196-7.996,27.588-7.976l187.068,2.184c12.62,0,22.892,9.028,22.892,20.148
				l1.752,205.732h-81.52c-1.752,0-3.172,1.416-3.172,3.172c0,1.752,1.42,3.168,3.172,3.168h84.72h0.028
				c0.208,0,0.388-0.08,0.588-0.124c0.212-0.044,0.44-0.052,0.632-0.136c0.164-0.072,0.288-0.196,0.436-0.292
				c0.196-0.124,0.408-0.228,0.568-0.392c0.12-0.116,0.184-0.276,0.28-0.412c0.14-0.192,0.3-0.372,0.392-0.596
				c0.076-0.184,0.08-0.396,0.12-0.596c0.044-0.208,0.128-0.404,0.128-0.624c0-0.004-0.004-0.008-0.004-0.012
				c0-0.004,0.004-0.008,0.004-0.012l-1.78-208.9c0-14.596-13.116-26.464-29.2-26.464L40.501,1.435
				c-0.852-0.072-20.536-1.44-32.224,9.696c-5.74,5.468-8.524,12.916-8.26,22.136c0.048,1.716,1.452,3.08,3.168,3.08h11.956v208.012
				c0,12.816,8.72,23.08,21.696,25.548c0.032,0.004,0.064,0.004,0.096,0.008v20.724c0,0.832,0.468,1.596,1.204,1.976
				c0.74,0.38,1.628,0.312,2.308-0.172l17.892-12.816l17.896,12.816c0.384,0.276,0.84,0.416,1.292,0.416
				c0.344,0,0.696-0.08,1.016-0.244c0.74-0.38,1.204-1.144,1.204-1.976v-19.816h146.06h0.008h1.476c0.008,0,0.012-0.004,0.02-0.004
				l26.392-0.076c0.176,0.012,1.192,0.084,2.796,0.084c6.004,0,20.204-1.004,29.424-9.788
				C291.665,255.571,294.445,248.123,294.189,238.907z M41.225,36.347h32.424v162.096h-0.004c-4.032-2.26-8.596-3.656-13.448-3.988
				v-41.564c0-1.228-0.992-2.22-2.22-2.22c-1.228,0-2.22,0.996-2.22,2.22v41.564c-5.3,0.364-10.24,2.012-14.532,4.648V36.347z
				 M36.933,250.955v12.428c-9.404-2.244-15.448-9.568-15.448-19.024V36.347h15.296v166.024c-6.708,5.9-10.968,14.52-10.968,24.136
				c0,9.704,4.336,18.392,11.148,24.296C36.957,250.855,36.933,250.899,36.933,250.955z M75.305,286.315l-15.672-11.224
				c-0.78-0.556-1.808-0.556-2.588,0l-15.676,11.228v-32.32c4.356,2.64,9.368,4.268,14.748,4.576v9.076
				c0,1.224,0.992,2.22,2.22,2.22c1.228,0,2.22-0.996,2.22-2.22v-9.116c5.4-0.432,10.424-2.196,14.748-4.98V286.315z
				 M57.977,254.231c-15.292,0-27.724-12.436-27.724-27.724c0-15.288,12.436-27.724,27.724-27.724
				c15.288-0.004,27.724,12.436,27.724,27.724C85.701,241.791,73.265,254.231,57.977,254.231z"/>
			<path d="M102.101,119.603h82.96c1.228,0,2.22-0.996,2.22-2.22c0-1.228-0.992-2.22-2.22-2.22h-82.96
				c-1.228,0-2.22,0.996-2.22,2.22C99.877,118.607,100.869,119.603,102.101,119.603z"/>
			<path d="M233.265,119.603c1.228,0,2.22-0.996,2.22-2.22c0-1.228-0.992-2.22-2.22-2.22h-31.94c-1.228,0-2.22,0.996-2.22,2.22
				c0,1.228,0.992,2.22,2.22,2.22H233.265z"/>
			<path d="M102.101,143.839h35.048c1.228,0,2.22-0.996,2.22-2.22c0-1.228-0.992-2.22-2.22-2.22h-35.048
				c-1.228,0-2.22,0.996-2.22,2.22C99.877,142.847,100.869,143.839,102.101,143.839z"/>
			<path d="M158.129,141.619c0,1.228,0.992,2.22,2.22,2.22h72.912c1.228,0,2.22-0.996,2.22-2.22c0-1.228-0.992-2.22-2.22-2.22
				h-72.912C159.121,139.399,158.129,140.391,158.129,141.619z"/>
			<path d="M102.101,168.075h66.28c1.228,0,2.22-0.996,2.22-2.22s-0.992-2.22-2.22-2.22h-66.28c-1.228,0-2.22,0.996-2.22,2.22
				S100.869,168.075,102.101,168.075z"/>
			<path d="M233.265,163.635h-35.056c-1.228,0-2.22,0.996-2.22,2.22c0,1.228,0.992,2.22,2.22,2.22h35.056
				c1.228,0,2.22-0.996,2.22-2.22S234.493,163.635,233.265,163.635z"/>
			<path d="M134.041,97.787c1.228,0,2.22-0.996,2.22-2.22c0-1.228-0.992-2.22-2.22-2.22h-31.94c-1.228,0-2.22,0.996-2.22,2.22
				c-0.004,1.224,0.988,2.22,2.22,2.22H134.041z"/>
			<path d="M57.977,74.107c1.228,0,2.22-0.996,2.22-2.22v-22.76c0-1.228-0.992-2.22-2.22-2.22c-1.228,0-2.22,0.996-2.22,2.22v22.76
				C55.753,73.115,56.745,74.107,57.977,74.107z"/>
			<path d="M57.977,143.463c1.228,0,2.22-0.996,2.22-2.22v-61.14c0-1.228-0.992-2.22-2.22-2.22c-1.228,0-2.22,0.996-2.22,2.22v61.14
				C55.753,142.471,56.745,143.463,57.977,143.463z"/>
		</g>
	</g>
</g>
</svg>