<?xml version="1.0" encoding="utf-8"?>
<!-- Generator: Adobe Illustrator 26.0.3, SVG Export Plug-In . SVG Version: 6.00 Build 0)  -->
<svg version="1.0" id="Layer_1" xmlns="http://www.w3.org/2000/svg" xmlns:xlink="http://www.w3.org/1999/xlink" x="0px" y="0px"
	 viewBox="0 0 912 592.5" style="enable-background:new 0 0 912 592.5;" xml:space="preserve">
<style type="text/css">
	.st0{fill:#212020;}
	.st1{fill:#016CA2;}
</style>
<path class="st0" d="M81,377.9v-15.4h11.3c6.8,0,10.7-2.1,10.7-14.6v-80.9c0-8.9-2.4-11.6-12.9-11.6H81v-15.4h132.6V295h-14.9
	c-3-28.2-5.4-39.5-32.3-39.5H131v43.2h10.7c12.1,0,17.5-6.3,17.5-23.1V273h14.9v69.4h-14.9v-5c0-16.8-5.4-23.3-17.5-23.3H131v48.4
	h40.2c18.5,0,25.7-11.9,27.5-42.8h14.9v58.2L81,377.9z M223.9,377.9v-15.4h13c5.7,0,9.6-2.1,9.6-9.2v-88.9c0-6.2-2.7-8.9-10.8-8.9
	h-11.8v-15.4h74.7v15.4h-11.4c-9,0-12,2.1-12,9.4v97.9h33.3c21,0,26.1-11.8,28-44.1h15.1v59.2H223.9z M392.2,377.9v-15.4h13
	c4.7,0,8.7-1.7,8.7-7.1v-92.9c0-5.4-4-7-8.7-7h-13v-15.4h79.6c30.5,0,47.9,14.4,47.9,37.8c0,25.6-18.3,37.6-45.5,37.6h-31.9v39.9
	c0,5.4,5.1,7.1,9.7,7.1h13v15.4L392.2,377.9L392.2,377.9z M442.4,300.2h18.5c19.1,0,29.3-6,29.3-22s-8.1-22.7-29.3-22.7h-18.5V300.2
	L442.4,300.2z M494.3,377.9h62.5v-15.4h-15.6c-3.8,0-6.4-0.9-6.4-3.7c0-1.5,0.3-3,0.8-4.4l6.6-20.8h45.5l6.6,20.8
	c0.5,1.6,0.8,3.3,0.8,5c0,2-1.6,3.1-6.2,3.1H573v15.4h135.5v-15.4h-11.6c-6.8,0-9.8-3.5-9.8-10.2v-86.9c0-7.9,6.2-10,12.6-10h8.8
	v-15.3h-70.9v15.4h11.2c7.8,0,10.2,4.1,10.2,9.4v90.2c0,5.4-3.2,7.5-11.4,7.5h-5c-10.6,0-17.4-1.5-21-11.2l-40-111.2h-28.1
	l-38.2,111.1c-3.4,9.8-10.4,11.2-21,11.2L494.3,377.9z M581.8,318.3H548l16-50.1h0.3L581.8,318.3L581.8,318.3z M812.2,239.3h11.5v53
	h-14.3c-4.7-23-17.2-39.4-40.8-39.4c-18.5,0-26,5.1-26,19c0,31.6,88.4,8,88.4,66.7c0,33.5-24.6,44.4-52.4,44.4
	c-14.9,0-29.7-6.7-41.2-16.6l-4.3,12.4h-13.5v-57h14.7c2.8,28.2,19,43.4,47.2,43.4c17.4,0,25.8-8.6,25.8-18.7c0-36-88.4-8.8-88.4-69
	c0-29.7,25.2-42.3,49.2-42.3c15.1,0,27.7,7.4,37.7,14.7L812.2,239.3L812.2,239.3z"/>
<path class="st1" d="M708.5,209.5v15.3h-71.4L708.5,209.5z"/>
</svg>
