<?xml version="1.0" standalone="no"?>
<!DOCTYPE svg PUBLIC "-//W3C//DTD SVG 20010904//EN"
 "http://www.w3.org/TR/2001/REC-SVG-20010904/DTD/svg10.dtd">
<svg version="1.0" xmlns="http://www.w3.org/2000/svg"
 width="960.000000pt" height="540.000000pt" viewBox="0 0 960.000000 540.000000"
 preserveAspectRatio="xMidYMid meet">
<metadata>
Created by potrace 1.16, written by Peter Selinger 2001-2019
</metadata>
<g transform="translate(0.000000,540.000000) scale(0.100000,-0.100000)"
fill="#000000" stroke="none">
<path d="M3280 4715 l0 -65 94 0 c109 0 131 -11 146 -75 12 -51 12 -1705 0
-1724 -6 -10 -12 5 -21 48 -7 35 -19 67 -29 74 -9 7 -26 37 -37 67 -55 146
-68 167 -126 200 -31 17 -58 38 -61 46 -4 10 12 39 43 77 51 66 81 118 80 139
0 7 -4 3 -9 -10 -14 -34 -63 -102 -103 -144 -31 -31 -35 -41 -30 -71 4 -26 -2
-51 -21 -94 -24 -50 -29 -56 -38 -39 -9 16 -16 12 -74 -45 -74 -73 -70 -74
-129 30 -32 57 -35 68 -29 114 5 36 12 51 25 54 28 8 23 30 -8 38 -55 13 -82
58 -43 68 22 6 50 62 50 101 0 14 -14 41 -30 60 -26 29 -29 38 -20 61 16 42
12 69 -20 150 -37 92 -37 105 -4 147 l26 33 -31 -33 c-39 -40 -39 -61 0 -153
30 -73 35 -137 12 -160 -9 -9 -141 121 -461 451 l-122 125 0 143 c0 107 -3
142 -12 142 -7 0 -89 -7 -183 -15 -93 -8 -178 -15 -188 -15 -14 0 -17 -8 -16
-49 l2 -49 49 -4 c36 -4 57 -12 76 -32 l27 -26 3 -723 c2 -397 0 -737 -3 -755
-8 -44 -36 -59 -132 -67 -79 -7 -83 -6 -107 19 l-26 25 0 507 0 506 -147 -6
c-82 -4 -165 -9 -185 -12 -38 -6 -38 -6 -38 -54 l0 -48 39 -7 c49 -8 77 -38
90 -95 13 -56 14 -710 1 -765 -11 -51 -41 -75 -91 -75 l-39 0 0 -52 0 -53 252
2 c139 2 367 3 506 3 l252 0 0 55 0 55 -40 0 c-30 0 -47 7 -65 25 l-25 24 0
367 c0 312 2 365 14 355 8 -7 17 -27 20 -46 10 -53 36 -77 84 -79 29 -2 38 1
28 6 -9 5 -16 21 -16 35 0 25 -1 26 -14 8 -13 -18 -14 -17 -30 7 -9 14 -20 43
-23 63 -5 33 -4 37 13 32 10 -3 44 -11 74 -17 75 -17 90 -26 90 -56 0 -14 7
-32 15 -40 23 -24 18 -53 -16 -86 -30 -30 -30 -31 -14 -67 9 -21 14 -26 11
-12 -3 16 3 34 20 53 25 31 30 70 15 110 -6 16 -5 29 5 42 13 18 16 18 121 -4
113 -24 118 -27 197 -121 7 -9 20 -19 27 -21 27 -9 -9 -35 -57 -42 -26 -3 -63
-16 -82 -28 -20 -12 -49 -21 -64 -20 -35 3 -83 -21 -103 -51 -16 -25 -16 -98
0 -104 7 -2 9 12 7 36 -4 36 -1 41 34 65 44 29 62 32 70 11 4 -9 10 -11 17 -4
26 21 86 57 106 64 25 8 26 1 5 -56 -8 -24 -18 -82 -21 -129 -7 -100 -17 -128
-32 -90 -9 21 -9 18 -5 -16 6 -38 4 -43 -28 -68 -59 -44 -71 -36 -108 68 l-18
51 5 -55 c4 -54 4 -56 -29 -77 -19 -13 -46 -23 -61 -23 -27 0 -67 31 -67 52 0
6 -3 9 -6 6 -9 -10 32 -82 55 -95 23 -14 68 -3 113 29 22 15 31 17 46 7 23
-14 66 0 102 33 12 11 23 18 25 17 1 -2 14 -65 28 -139 l26 -135 -67 -63 c-37
-35 -106 -93 -154 -129 -49 -36 -88 -67 -88 -69 0 -21 143 -275 213 -377 l39
-59 -24 -15 c-77 -52 -163 -175 -203 -290 -49 -141 -57 -336 -19 -478 86 -324
368 -486 629 -360 137 65 230 175 277 325 21 67 23 93 23 255 -1 168 -3 185
-28 260 -15 44 -40 100 -56 125 -17 24 -29 44 -28 45 1 0 37 -1 79 -3 l77 -4
3 -401 c3 -344 6 -409 21 -453 22 -66 67 -127 119 -161 36 -24 52 -28 112 -28
60 0 77 5 111 27 98 64 149 154 171 301 22 144 21 147 -25 147 l-38 0 -6 -77
c-15 -190 -90 -287 -176 -227 -49 35 -51 55 -51 479 l0 395 193 -2 192 -3 17
-35 c16 -31 18 -73 18 -410 0 -337 -2 -378 -18 -410 -18 -35 -65 -57 -104 -47
-16 5 -18 -1 -18 -49 l0 -54 250 0 250 0 0 49 0 48 -50 7 c-84 11 -80 -19 -80
552 l0 502 -57 -4 c-262 -18 -391 -24 -484 -24 l-109 0 -2 237 -3 238 -35 0
-35 0 -12 -74 c-23 -136 -56 -227 -110 -299 -30 -40 -20 -47 -165 116 -127
141 -124 125 -37 234 55 70 95 148 110 217 l11 51 296 2 297 3 3 63 3 62 -93
0 c-103 0 -127 9 -153 60 -13 24 -15 96 -15 450 l0 420 68 0 c89 0 136 -14
181 -55 70 -64 130 -212 131 -322 0 -64 7 -73 54 -73 l41 0 -3 495 -2 495 -40
0 c-24 0 -42 -5 -44 -12 -2 -7 -10 -50 -19 -95 -32 -170 -110 -279 -216 -302
-28 -6 -74 -11 -101 -11 l-50 0 0 385 c0 418 2 438 54 451 13 3 109 4 212 2
178 -3 192 -4 237 -28 128 -65 198 -211 228 -475 l13 -105 43 0 43 0 0 93 c0
50 -3 217 -7 370 l-6 277 -699 0 -698 0 0 -65z m-955 -575 c70 -77 -17 -442
-127 -535 -90 -76 -114 117 -42 345 27 86 80 177 115 196 32 17 33 17 54 -6z
m990 -921 c39 -24 59 -57 98 -166 15 -40 35 -81 46 -92 19 -19 36 -91 29 -127
-3 -19 -122 -104 -145 -104 -20 0 -36 41 -39 97 -1 28 -9 62 -17 75 -19 28
-37 124 -37 193 0 70 11 145 21 145 4 0 24 -10 44 -21z m178 -452 c14 -38 18
-128 7 -164 -18 -54 -106 -214 -139 -249 -15 -16 -30 -37 -33 -46 -4 -9 -16
-18 -27 -20 -17 -3 -11 -13 41 -78 33 -41 93 -111 134 -155 88 -93 88 -92 -11
-182 -105 -96 -220 -166 -338 -205 l-59 -19 -41 47 c-84 95 -142 172 -223 294
-92 140 -208 345 -202 359 1 5 44 41 95 80 51 39 143 121 206 183 l114 113 49
-89 c27 -50 69 -121 93 -158 38 -60 42 -72 33 -96 -6 -15 -13 -36 -17 -47 -5
-17 -12 -11 -42 38 l-35 58 -24 -22 -24 -22 27 -46 c64 -110 182 -276 252
-354 l34 -38 23 22 23 21 -73 92 c-141 176 -162 221 -135 289 10 23 17 27 49
27 36 0 38 2 63 58 14 31 40 101 58 155 42 120 104 200 122 154z m-531 -1014
c20 -27 52 -63 71 -82 l35 -33 76 25 c69 23 76 24 81 8 24 -78 33 -400 14
-538 -19 -140 -65 -235 -129 -268 -16 -8 -51 -15 -79 -15 -58 0 -96 27 -137
95 -46 79 -58 167 -58 415 0 179 3 239 17 293 17 70 52 147 65 147 4 0 24 -21
44 -47z"/>
<path d="M2255 4088 c-56 -44 -116 -220 -118 -343 -3 -193 100 -129 164 102
26 92 31 221 10 246 -17 22 -23 21 -56 -5z"/>
<path d="M2835 2474 c-93 -80 -170 -149 -169 -152 2 -22 28 -72 35 -70 4 2 84
68 177 147 l169 144 -16 38 c-9 22 -18 39 -21 39 -3 0 -81 -66 -175 -146z"/>
<path d="M2993 2338 l-22 -21 21 -41 c52 -103 251 -370 285 -383 8 -3 24 3 35
15 l20 20 -74 93 c-76 95 -152 204 -202 292 -15 26 -31 47 -35 47 -3 0 -16
-10 -28 -22z"/>
<path d="M2915 2270 c-9 -10 -15 -26 -12 -34 22 -57 181 -283 265 -376 l41
-45 22 22 22 22 -27 33 c-78 95 -179 236 -225 312 -29 47 -56 86 -60 86 -4 0
-16 -9 -26 -20z"/>
<path d="M2848 2212 l-26 -27 60 -95 c56 -90 168 -242 223 -303 25 -28 27 -28
50 -13 14 9 25 21 25 27 0 6 -21 34 -46 63 -58 63 -145 185 -208 291 -27 44
-49 81 -51 82 -1 2 -13 -10 -27 -25z"/>
<path d="M2778 2156 c-10 -7 -18 -17 -18 -21 0 -26 254 -373 304 -415 15 -11
19 -11 33 3 14 14 12 20 -29 69 -72 85 -161 209 -213 297 -26 44 -51 81 -54
81 -3 0 -14 -7 -23 -14z"/>
<path d="M1624 4428 c-132 -34 -153 -294 -30 -369 91 -55 189 20 203 156 7 68
-17 142 -60 182 -36 34 -68 43 -113 31z"/>
<path d="M5416 4273 c-2 -10 -8 -42 -11 -72 -9 -71 -37 -166 -64 -219 -45 -89
-137 -162 -204 -162 -27 0 -27 -1 -27 -65 l0 -65 75 0 75 0 0 -394 c0 -365 1
-399 20 -458 24 -78 65 -137 117 -169 31 -20 51 -24 113 -24 65 0 82 4 123 29
87 52 150 177 162 324 3 37 8 79 10 95 4 25 2 27 -34 27 l-38 0 -7 -80 c-11
-140 -66 -240 -131 -240 -34 0 -83 45 -95 88 -6 22 -10 189 -10 420 l0 382
175 0 175 0 0 -390 c0 -236 4 -408 11 -438 14 -69 66 -150 117 -187 40 -27 51
-30 121 -30 69 0 81 3 126 32 56 36 106 104 131 176 9 26 19 47 22 47 4 0 14
-14 21 -32 22 -49 140 -161 202 -191 160 -79 343 -45 487 88 126 116 171 230
179 451 7 171 -10 274 -64 384 -69 142 -206 247 -356 272 -209 34 -396 -88
-491 -320 -47 -118 -56 -204 -46 -467 5 -124 -15 -202 -65 -252 -39 -39 -71
-42 -110 -11 -54 42 -55 54 -55 478 l0 390 140 0 140 0 0 65 0 65 -140 0 -140
0 0 236 0 235 -37 -3 -37 -3 -12 -80 c-21 -148 -55 -233 -120 -305 -61 -67
-101 -80 -247 -80 l-127 0 0 235 0 235 -34 0 c-24 0 -36 -5 -40 -17z m1443
-530 c45 -33 88 -109 107 -185 12 -51 19 -130 22 -261 6 -266 -15 -389 -84
-489 -76 -109 -213 -89 -278 39 -41 82 -51 158 -50 408 0 215 2 248 22 318 31
111 71 165 142 191 27 10 93 -2 119 -21z"/>
<path d="M2895 3887 c-13 -32 -13 -39 8 -91 l23 -56 12 34 c7 18 21 41 32 51
20 18 22 18 62 -11 55 -38 174 -185 205 -252 21 -44 25 -65 21 -118 -2 -35 0
-58 4 -51 13 20 9 112 -6 155 -39 110 -249 356 -313 368 -30 6 -34 4 -48 -29z"/>
<path d="M4605 3857 c-105 -35 -192 -104 -230 -182 -43 -90 -28 -221 31 -260
33 -21 97 -22 130 0 52 34 71 143 38 224 -21 54 -15 81 25 108 97 65 215 27
258 -85 14 -36 18 -75 18 -161 0 -113 0 -114 -25 -122 -14 -4 -74 -22 -135
-39 -232 -68 -335 -133 -393 -246 -90 -176 -22 -401 133 -444 59 -16 179 -9
230 15 22 10 75 54 117 97 42 43 79 78 81 78 3 0 8 -12 12 -27 9 -41 63 -125
93 -148 19 -14 47 -21 94 -23 70 -4 119 11 177 57 23 18 24 21 12 60 -13 45
-18 48 -47 26 -29 -22 -67 -18 -84 8 -12 18 -16 90 -21 412 -5 366 -7 394 -27
448 -56 151 -144 207 -337 213 -74 3 -123 0 -150 -9z m272 -719 c-5 -149 -13
-186 -60 -254 -41 -62 -83 -86 -148 -86 -88 0 -123 52 -123 182 0 73 4 92 27
137 25 49 62 85 117 114 42 22 175 57 184 49 4 -4 6 -68 3 -142z"/>
<path d="M644 2921 c-200 -54 -361 -199 -474 -426 -100 -200 -135 -387 -127
-680 9 -325 72 -528 227 -734 167 -221 406 -319 650 -266 36 7 66 12 68 11 1
-2 7 -43 13 -92 30 -264 97 -393 227 -430 188 -55 350 116 369 390 l6 82 -42
-4 c-45 -4 -44 -4 -56 -94 -7 -55 -37 -98 -69 -98 -48 0 -97 86 -151 265 -19
64 -35 125 -35 136 0 10 21 45 47 77 92 112 156 229 203 370 32 94 60 248 60
325 0 34 4 49 16 54 26 10 76 -11 98 -40 20 -27 21 -43 27 -380 6 -377 9 -399
64 -507 29 -57 58 -83 119 -111 117 -52 264 19 368 177 23 35 45 64 49 64 3 0
9 -42 12 -92 4 -51 9 -106 12 -123 l6 -30 162 6 c89 4 165 7 170 8 4 1 7 25 7
54 l0 52 -36 2 c-45 2 -80 34 -94 82 -6 22 -10 227 -10 509 l0 474 -37 -6
c-34 -5 -288 -26 -320 -26 -9 0 -13 -17 -13 -54 0 -48 2 -54 18 -49 34 9 87
-22 106 -61 16 -33 17 -66 14 -304 -3 -226 -6 -275 -22 -317 -70 -195 -224
-247 -306 -103 l-25 43 -5 435 c-3 294 -8 434 -15 433 -41 -7 -347 -25 -351
-20 -3 3 -9 50 -14 104 -5 54 -16 133 -25 177 -69 333 -284 614 -537 702 -102
36 -254 42 -354 15z m260 -131 c40 -15 69 -36 108 -78 97 -106 154 -265 178
-496 23 -217 0 -782 -35 -875 -3 -7 -21 18 -41 58 -95 191 -246 269 -409 212
-30 -11 -68 -30 -84 -43 -66 -53 -117 -163 -138 -298 l-9 -55 -17 55 c-48 151
-72 423 -63 695 10 302 43 497 109 634 38 80 129 173 190 195 61 21 147 20
211 -4z m-43 -1313 c81 -54 119 -153 126 -329 6 -144 6 -143 -65 -185 -37 -22
-57 -27 -121 -27 -93 -1 -156 28 -183 84 -61 129 -44 333 35 419 60 65 145 81
208 38z"/>
<path d="M5178 2597 l-178 -10 0 -58 0 -59 60 0 c53 0 64 -4 85 -26 14 -15 27
-44 30 -67 3 -23 5 -175 3 -337 -3 -290 -3 -294 -21 -260 -34 67 -85 127 -133
156 -44 26 -57 29 -139 29 -75 0 -97 -4 -134 -24 -113 -59 -206 -208 -242
-386 -28 -136 -23 -373 11 -480 80 -255 267 -378 463 -305 62 23 89 49 151
144 28 43 47 64 50 55 3 -8 9 -57 13 -109 6 -71 12 -94 22 -92 7 1 197 5 422
9 l409 6 0 39 c0 21 2 38 4 38 2 0 23 -20 47 -44 78 -78 200 -95 317 -45 30
13 74 49 123 99 l77 79 39 -77 c43 -86 79 -117 149 -128 32 -4 57 -1 92 12 40
15 85 19 315 21 l267 4 0 53 c0 48 -2 54 -18 49 -39 -10 -86 12 -105 47 -16
32 -18 60 -14 310 5 296 11 338 61 425 38 64 88 95 152 95 60 0 94 -22 124
-79 34 -68 41 -152 38 -451 -2 -233 -6 -289 -18 -308 -16 -23 -82 -47 -106
-38 -11 4 -14 -7 -14 -49 l0 -55 250 0 250 0 0 50 c0 49 -1 50 -30 50 -41 0
-76 18 -89 47 -7 16 -11 130 -11 341 0 341 -7 423 -44 513 -30 76 -70 121
-129 150 -130 62 -265 1 -384 -173 l-48 -70 -6 69 c-4 38 -10 94 -14 123 l-7
53 -132 -7 c-72 -4 -150 -9 -173 -12 l-43 -6 0 -49 c0 -49 0 -49 33 -49 18 0
43 -7 56 -16 49 -34 51 -56 51 -454 0 -429 -1 -437 -72 -454 -17 -4 -32 -1
-40 8 -12 11 -17 11 -33 0 -31 -23 -72 -17 -92 13 -16 24 -19 66 -23 423 -5
374 -7 398 -27 448 -32 79 -67 119 -134 153 -120 60 -304 62 -417 5 -62 -32
-139 -107 -163 -159 -24 -53 -25 -156 -3 -203 9 -19 29 -41 45 -49 37 -20 99
-19 128 1 50 35 65 130 35 217 -21 61 -13 90 33 118 52 31 126 32 175 1 61
-38 88 -107 95 -244 7 -131 9 -127 -87 -152 -296 -78 -429 -160 -481 -293 -24
-63 -31 -174 -16 -250 10 -48 7 -50 -54 -33 -23 6 -40 19 -47 36 -9 18 -12
165 -12 517 l0 492 -77 -3 c-43 -2 -125 -7 -183 -10 l-104 -7 1 -60 1 -60 50
-3 c83 -5 82 -1 82 -450 0 -245 -4 -390 -11 -410 -14 -40 -61 -57 -139 -49
-76 8 -88 14 -108 51 -16 28 -17 99 -20 854 l-3 822 -27 -2 c-15 -1 -107 -6
-204 -11z m-160 -781 c68 -36 132 -148 152 -269 20 -116 8 -325 -24 -423 -42
-129 -109 -204 -184 -204 -75 0 -131 56 -164 163 -21 66 -23 91 -23 297 0 209
2 230 24 290 27 78 58 121 103 143 41 20 81 21 116 3z m1599 -558 c-7 -191
-43 -282 -132 -334 -111 -65 -199 4 -199 156 0 159 75 246 255 294 88 24 83
33 76 -116z"/>
<path d="M4275 2573 c-90 -22 -138 -188 -86 -296 81 -167 274 -77 259 121 -8
120 -85 197 -173 175z"/>
<path d="M5747 2570 c-41 -13 -57 -29 -83 -85 -61 -130 5 -295 118 -295 52 0
90 28 119 87 69 144 -29 331 -154 293z"/>
<path d="M8377 1969 c-172 -25 -326 -203 -378 -437 -19 -81 -17 -293 3 -367
56 -210 157 -338 313 -397 79 -30 207 -32 280 -4 105 41 213 132 268 227 109
189 106 561 -5 749 -68 114 -205 209 -328 229 -72 12 -71 12 -153 0z m150
-117 c106 -57 150 -230 141 -556 -8 -253 -44 -374 -130 -426 -50 -30 -128 -27
-167 6 -89 74 -116 189 -115 484 1 271 20 370 91 457 42 52 120 67 180 35z"/>
<path d="M9391 1348 c-9 -46 -21 -70 -46 -95 -18 -18 -40 -33 -49 -33 -10 0
-16 -9 -16 -25 0 -21 5 -25 30 -25 l30 0 0 -149 c0 -173 4 -202 36 -236 67
-72 174 12 174 138 0 42 -17 32 -24 -15 -9 -54 -31 -88 -56 -88 -33 0 -40 33
-40 199 l0 161 55 0 c48 0 55 3 55 19 0 17 -8 20 -52 23 l-53 3 -3 93 c-3 111
-21 125 -41 30z"/>
<path d="M9100 1210 c0 -11 4 -20 9 -20 5 0 17 -7 25 -16 13 -13 16 -44 16
-178 0 -167 -4 -186 -41 -186 -11 0 -16 -6 -13 -17 4 -16 18 -18 100 -18 81 0
94 2 94 17 0 10 -9 18 -22 20 -23 3 -23 4 -26 211 l-2 207 -70 0 c-63 0 -70
-2 -70 -20z"/>
</g>
</svg>
