<?xml version="1.0" encoding="utf-8"?>
<!-- Generator: Adobe Illustrator 19.0.0, SVG Export Plug-In . SVG Version: 6.00 Build 0)  -->
<svg version="1.1" id="layer" xmlns="http://www.w3.org/2000/svg" xmlns:xlink="http://www.w3.org/1999/xlink" x="0px" y="0px"
	 viewBox="-153 -46 652 652" style="enable-background:new -153 -46 652 652;" xml:space="preserve">
<path id="XMLID_1_" d="M437.9,302.9c0.2-37.4-5.5-73.7-17.8-108.8c-17.8-50.7-45.3-94.4-90.1-123.7c-54.2-35.5-110.9-40.2-167.8-7.1
	c-37.6,21.9-60.1,57.4-74.2,98.7C71.5,210.8,69,261,77,311.8c9.4,59.9,32.2,113.2,75.1,155.9c32.5,32.2,71,51.2,116.5,51.7
	c58.9,0.7,103.6-26.6,134.6-77.7C428.9,399.3,437.8,352.2,437.9,302.9 M498.9,280.5c0,139.6-107.9,250-244.4,250
	C119,530.5,9.9,424,11.8,277C13.6,142.2,118.7,30.4,256.4,30.5C393.9,30.6,498.9,138.9,498.9,280.5 M-41.4,198.7
	c0,12.3,0.1,24.4,0,36.5c-0.3,35.3-0.9,70.6-0.8,105.9c0.1,45,0.8,90,1.4,135c0.2,17.2,6.2,25.3,22.5,29.7
	c9.1,2.4,18.5,3.5,27.7,5.4c1.8,0.4,3.2,2.2,4.9,3.4c-1.8,0.9-3.6,2.7-5.4,2.6c-21.4-0.7-42.8-2.3-64.2-2.2
	c-29.6,0.1-59.3,1.4-88.9,2.3c-0.9,0-2,0.4-2.8,0.1c-1.7-0.7-3.2-1.7-4.7-2.7c1.4-1.2,2.6-3.1,4.1-3.4c8.3-1.7,16.8-2.6,25-4.5
	c19.3-4.4,25.6-12.5,25.9-32.9c0.7-48.9,1.7-97.8,1.8-146.7c0.1-29.7-1-59.3-2-89c-0.5-13.3-4.8-19-17.3-22.3
	c-10.9-2.9-22.1-4.5-33.2-6.9c-1.6-0.4-2.9-2-4.4-3.1c1.5-1,2.9-2.8,4.4-2.9c34.1-1.6,68.2-3,102.3-4.5
	C-44,198.3-42.9,198.5-41.4,198.7 M-35.8,79.8c-0.1,21.9-16,38.2-37.1,38c-20.5-0.2-36.6-16.9-36.7-38.1
	c-0.1-21.9,15.6-38.1,37.1-38.1C-50.9,41.6-35.7,57.4-35.8,79.8 M116.5,283.7c0,2.8,0.2,4.5,1,5.8c1.1,1.6,3.1,2.2,6.3,2.2
	c10,0,14.5-6.8,14.5-16.6c0-5.8-2.7-15.7-16.2-15.7c-3,0-4.7,0.4-5.1,0.7c-0.4,0.3-0.5,1.7-0.5,4V283.7z M112.3,264.7
	c0-3.7-0.3-4.8-2.4-5.2l-1.1-0.2c-0.4-0.3-0.5-1.1,0.1-1.3c4.4-0.3,8.5-0.4,12.9-0.4c4.3,0,8,0.3,11.3,1.6
	c6.9,2.6,10.4,8.7,10.4,15.7c0,6.8-3.1,12.5-9,15.8c-3.3,1.9-7.6,2.5-11.5,2.5c-3.3,0-6.6-0.4-8.4-0.4c-2.2,0-4,0.1-6.4,0.2
	c-0.3-0.2-0.4-1-0.1-1.3l1.2-0.2c3-0.4,3.1-1.1,3.1-6.7V264.7z M204.8,276.9c0-8.8-3.7-18.2-13.6-18.2c-5.3,0-12.3,3.8-12.3,15.4
	c0,7.9,3.7,18.1,13.8,18.1C199,292.1,204.8,287.3,204.8,276.9 M173.8,275.8c0-10.6,7.7-18.8,18.3-18.8c11.9,0,17.9,8.9,17.9,18.2
	c0,10.7-7.9,18.5-17.9,18.5C180.7,293.8,173.8,285.3,173.8,275.8 M272.2,283.9c0,1.6,0,7.9,0.2,9.3c-0.1,0.3-0.4,0.6-1,0.6
	c-0.6-0.9-2.1-2.8-6.6-8l-11.9-14c-1.4-1.6-4.9-6-6-7.2h-0.1c-0.2,0.6-0.3,1.9-0.3,3.5v11.6c0,2.5,0.1,9.4,0.9,11
	c0.3,0.6,1.3,0.9,2.6,1l1.6,0.2c0.3,0.4,0.3,1.1-0.1,1.3c-2.3-0.1-4.1-0.2-6-0.2c-2.2,0-3.6,0.1-5.3,0.2c-0.4-0.3-0.4-1-0.1-1.3
	l1.4-0.2c1.2-0.2,2-0.5,2.3-1.1c0.7-1.9,0.7-8.4,0.7-11v-15.4c0-1.5,0-2.6-1.1-3.8c-0.7-0.7-2-1.1-3.2-1.3l-0.9-0.1
	c-0.3-0.3-0.3-1.1,0.1-1.3c2.2,0.2,4.9,0.2,5.8,0.2c0.8,0,1.7-0.1,2.4-0.2c1,2.7,7.1,9.7,8.8,11.7l5,5.8c3.5,4.1,6.1,7.1,8.5,9.6
	h0.1c0.2-0.3,0.2-1.1,0.2-2.2v-11.4c0-2.5,0-9.4-1-11c-0.3-0.5-1.1-0.8-3.2-1.1l-0.9-0.1c-0.4-0.3-0.3-1.2,0.1-1.3
	c2.4,0.1,4.1,0.2,6.1,0.2c2.2,0,3.5-0.1,5.3-0.2c0.4,0.3,0.4,1,0.1,1.3l-0.7,0.1c-1.6,0.3-2.7,0.7-2.9,1.1c-0.9,1.9-0.8,8.5-0.8,11
	V283.9z M338.2,283.9c0,1.6,0,7.9,0.2,9.3c-0.1,0.3-0.4,0.6-1,0.6c-0.6-0.9-2.1-2.8-6.6-8l-11.9-14c-1.4-1.6-4.9-6-6-7.2h-0.1
	c-0.2,0.6-0.3,1.9-0.3,3.5v11.6c0,2.5,0.1,9.4,0.9,11c0.3,0.6,1.3,0.9,2.6,1l1.6,0.2c0.3,0.4,0.3,1.1-0.1,1.3
	c-2.3-0.1-4.1-0.2-6-0.2c-2.2,0-3.6,0.1-5.3,0.2c-0.4-0.3-0.4-1-0.1-1.3l1.4-0.2c1.2-0.2,2-0.5,2.3-1.1c0.7-1.9,0.7-8.4,0.7-11
	v-15.4c0-1.5,0-2.6-1.1-3.8c-0.7-0.7-1.9-1.1-3.2-1.3l-0.9-0.1c-0.3-0.3-0.3-1.1,0.1-1.3c2.2,0.2,4.9,0.2,5.8,0.2
	c0.8,0,1.7-0.1,2.4-0.2c1,2.7,7.1,9.7,8.8,11.7l5,5.8c3.5,4.1,6.1,7.1,8.5,9.6h0.1c0.2-0.3,0.2-1.1,0.2-2.2v-11.4
	c0-2.5-0.1-9.4-1-11c-0.3-0.5-1.1-0.8-3.2-1.1L331,259c-0.4-0.3-0.3-1.2,0.1-1.3c2.4,0.1,4.1,0.2,6.1,0.2c2.2,0,3.5-0.1,5.3-0.2
	c0.4,0.3,0.4,1,0.1,1.3l-0.7,0.1c-1.6,0.3-2.7,0.7-2.9,1.1c-0.9,1.9-0.8,8.5-0.8,11V283.9z M380.6,275.9c-0.4,1.2-0.4,1.3,1.1,1.3
	h6.3c1.5,0,1.6-0.2,1.1-1.6l-2.8-8.7c-0.4-1.3-0.9-2.7-1.2-3.4h-0.1c-0.2,0.3-0.7,1.5-1.3,3.1L380.6,275.9z M390.8,280.6
	c-0.4-1.2-0.6-1.3-2.1-1.3h-7.8c-1.3,0-1.6,0.2-2,1.3l-1.8,5.6c-0.8,2.4-1.1,3.8-1.1,4.4c0,0.6,0.3,1,1.5,1.1l1.7,0.2
	c0.4,0.3,0.4,1.1-0.1,1.3c-1.3-0.1-2.9-0.1-5.3-0.2c-1.7,0-3.6,0.1-4.9,0.2c-0.3-0.2-0.4-1.1-0.1-1.3l1.7-0.2
	c1.2-0.1,2.4-0.7,3.1-2.6c0.9-2.5,2.4-5.9,4.5-11.8l5.2-14.4c0.7-1.9,1-2.9,0.9-3.8c1.2-0.4,2.1-1.3,2.7-2c0.3,0,0.7,0.1,0.8,0.5
	c0.7,2.3,1.5,4.8,2.3,7.1l7.1,21.4c1.5,4.6,2.2,5.4,4.4,5.6l1.4,0.2c0.4,0.3,0.3,1.1,0,1.3c-2.1-0.1-3.9-0.2-6.2-0.2
	c-2.5,0-4.4,0.1-5.9,0.2c-0.4-0.2-0.5-1.1-0.1-1.3l1.5-0.2c1.1-0.1,1.8-0.4,1.8-1c0-0.6-0.3-1.5-0.7-2.8L390.8,280.6z"/>
</svg>
